<svg class="w-[150px] md:w-[200px] lg:mx-0 fill-yellow-500 text-yellow-500!" fill="currentColor" xmlns="http://www.w3.org/2000/svg" xmlns:xlink="http://www.w3.org/1999/xlink" version="1.1" id="Capa_1" x="0px" y="0px" viewBox="0 0 595.3 119.5" enable-background="new 0 0 595.3 119.5" xml:space="preserve">
    <g>
        <g>
            <path class="fill-current" d="M528,19.7h-31.7l32.8,47.5l-36.2,52.4h30.2l16.7-29.6c0.7-1.2,1.3-2.5,1.9-3.8c0.5-1.4,1-2.8,1.4-4.4    c0.4,1.4,0.8,2.8,1.4,4.2c0.6,1.4,1.2,2.7,2,4.1l16.5,29.6h30.2l-36.1-51.8l32.6-48h-31.6l-11.7,23.2c-0.1,0.2-0.2,0.4-0.4,0.7    c-1.5,2.9-2.5,5.3-3,7.4c-0.5-2.3-1.6-4.9-3.1-7.9c0-0.1-0.1-0.2-0.1-0.3L528,19.7z"></path>
        </g>
        <g>
            <g>
                <g>
                    <path class="fill-current" d="M27.8,19.2H5v100.3h22.8V76.8h5.5c2.1,0,3.8,0.3,5,0.8c1.2,0.5,2.3,1.4,3.1,2.7l22.2,34.9      c0.4,0.7,0.9,1.3,1.4,1.8c0.5,0.5,1.1,1,1.8,1.3c0.7,0.4,1.5,0.6,2.4,0.8c0.9,0.2,2,0.3,3.3,0.3h20.3L63.2,73      c-1.2-1.9-2.5-3.4-3.9-4.5c-1.4-1.1-3-2-4.7-2.7c1.2-0.6,2.3-1.4,3.4-2.4c1.1-1,2.2-2.2,3.2-3.6l29.1-40.5H70.6      c-2.2,0-4.1,0.3-5.7,1c-1.5,0.6-2.9,1.9-4.1,3.6L38.7,56.6c-1.5,2.2-3.9,3.2-7.3,3.2h-3.6V19.2z"></path>
                </g>
            </g>
            <g>
                <g>
                    <path class="fill-current" d="M124.7,119.5V80.4l22.4,39.1h30.1l-26.6-40.2c7.1-1.6,12.5-4.8,16.2-9.6c3.7-4.8,5.6-11.1,5.6-18.9      c0-5.1-0.9-9.7-2.8-14c-1.9-4.2-4.6-7.7-8.1-10.4c-3.1-2.4-6.8-4.1-11.1-5.1c-4.3-1-11.9-1.5-22.8-1.5H99.7v99.8H124.7z       M124.7,40.6h5.3c5.8,0,10,1.1,12.4,3.2c2.5,2.1,3.7,5.7,3.7,10.7c0,4.3-1.3,7.4-4,9.4c-2.6,2-6.8,3-12.6,3h-4.9V40.6z"></path>
                </g>
            </g>
            <g>
                <g>
                    <path class="fill-current" d="M315.3,119.5h4.5c12.7,0,22.1-0.7,28.1-2.1c6-1.4,11.4-3.8,16.1-7.2c6.2-4.4,10.9-10.1,14.1-16.9      c3.2-6.9,4.8-14.7,4.8-23.6c0-8.8-1.6-16.7-4.8-23.6c-3.2-6.9-7.9-12.5-14.1-16.9c-4.8-3.4-10.3-5.8-16.6-7.3      c-6.3-1.5-17-2.2-32.2-2.2h-20.3v99.8H315.3z M321.3,42h4.5c10.5,0,18.1,2.2,22.9,6.7c4.8,4.5,7.2,11.5,7.2,21      c0,9.5-2.4,16.5-7.2,20.9c-4.8,4.4-12.4,6.6-22.9,6.6h-4.5V42z"></path>
                </g>
            </g>
            <path fill-rule="evenodd" clip-rule="evenodd" class="fill-current" d="M279.7,47c-2.6-6.3-6.3-11.9-11.2-16.8    c-4.9-4.9-10.6-8.7-17-11.4c-6.2-2.6-12.6-3.9-19.3-4c-3.9-0.8-8.5-1.9-12.8-3.6C209.2,7.2,200.8,0,200.8,0s0.5,7.3,3.6,12.6    c1.6,2.9,4.8,5,6.3,5.9c0.3,0.1,0.4,0.2,0.6,0.3c0,0,0,0,0,0c-0.2-0.1-0.3-0.2-0.6-0.3c-1.5-0.8-4.6-2.1-7.9-2.1    c-4.7,0-9.9,2.5-9.9,2.5s4.2,0.6,5.7,2.4c1.5,1.7,0.3,4.6,0.3,4.6s-5.2,2.2-12.6,3.6c-7.1,1.4-8.6,1.9-8.6,1.9s2.6,2.3,7.6,3.2    c2.4,0.4,3.5,1.3,4,2c-2.4,3.3-4.4,6.8-5.9,10.5c-2.6,6.3-3.9,13-3.9,20.1c0,7.1,1.3,13.8,3.9,20.1c2.6,6.3,6.4,12,11.4,16.9    c4.8,4.9,10.5,8.7,16.8,11.4c6.4,2.7,13.1,4,20,4c6.9,0,13.5-1.3,19.9-4c6.4-2.7,12.1-6.4,17.1-11.4c4.9-5,8.7-10.6,11.3-16.8    c2.6-6.3,3.9-13,3.9-20.2C283.6,60,282.3,53.3,279.7,47z M249.8,88.2c-4.8,5.5-10.9,8.3-18.3,8.3c-7.5,0-13.7-2.7-18.4-8.2    c-4.8-5.5-7.1-12.5-7.1-21.1c0-8.4,2.4-15.4,7.2-21c4.8-5.6,10.9-8.4,18.3-8.4c7.2,0,13.3,2.8,18.2,8.4c4.9,5.6,7.3,12.6,7.3,20.9    C257,75.6,254.6,82.6,249.8,88.2z"></path>
            <path fill-rule="evenodd" clip-rule="evenodd" class="fill-current" d="M493.5,47c-2.6-6.3-6.3-11.9-11.2-16.8    c-4.9-4.9-10.6-8.7-17-11.4c-6.3-2.6-12.9-3.9-19.7-4c-3.9-0.8-8.5-1.9-12.8-3.6C422.6,7.2,414.1,0,414.1,0s0.5,7.3,3.6,12.6    c1.6,2.9,4.8,5,6.3,5.9c0.4,0.2,0.6,0.3,0.8,0.4c0,0,0,0,0,0c-0.2-0.1-0.4-0.2-0.8-0.4c-1.5-0.8-4.6-2.1-7.9-2.1    c-4.7,0-9.9,2.5-9.9,2.5s4.2,0.6,5.7,2.4c1.5,1.7,0.3,4.6,0.3,4.6s-5.2,2.2-12.6,3.6c-7.1,1.4-8.6,1.9-8.6,1.9s2.6,2.3,7.6,3.2    c2.8,0.5,3.8,1.6,4.1,2.3c-2.3,3.2-4.2,6.6-5.7,10.2c-2.6,6.3-3.9,13-3.9,20.1c0,7.1,1.3,13.8,3.9,20.1c2.6,6.3,6.4,12,11.4,16.9    c4.8,4.9,10.5,8.7,16.8,11.4c6.4,2.7,13.1,4,20,4c6.9,0,13.5-1.3,19.9-4c6.4-2.7,12.1-6.4,17.1-11.4c4.9-5,8.7-10.6,11.3-16.8    c2.6-6.3,3.9-13,3.9-20.2C497.4,60,496.1,53.3,493.5,47z M463.5,88.2c-4.8,5.5-10.9,8.3-18.3,8.3c-7.5,0-13.7-2.7-18.4-8.2    c-4.8-5.5-7.1-12.5-7.1-21.1c0-8.4,2.4-15.4,7.2-21c4.8-5.6,10.9-8.4,18.3-8.4c7.2,0,13.3,2.8,18.2,8.4c4.9,5.6,7.3,12.6,7.3,20.9    C470.7,75.6,468.3,82.6,463.5,88.2z"></path>
        </g>
    </g>
</svg>
